{"title":"Jai Ho (2014) CAM ~AAC~MP4 {AryaN_L33T}[LittleFairyRG]","uid":9524740,"size":1052299473,"categoryP":"video","categoryS":"movies","magnet":"?xt=urn:btih:a5d30f42ba70b97f9a03d0359aed592f8406bae5&amp;dn=Jai+Ho+%282014%29+CAM+%7EAAC%7EMP4+%7BAryaN_L33T%7D%5BLittleFairyRG%5D&amp;tr=udp%3A%2F%2Ftracker.openbittorrent.com%3A80&amp;tr=udp%3A%2F%2Fopen.demonii.com%3A1337&amp;tr=udp%3A%2F%2Ftracker.coppersurfer.tk%3A6969&amp;tr=udp%3A%2F%2Fexodus.desync.com%3A6969","seeders":1,"leechers":0,"uploader":"SirHates","files":13,"time":1390722374,"description":"Name:Jai Ho (2014)\n\nGenre:Bollywood\n\nFormat:mp4\n\nAudio:aac,128 kb/s\n\nVideo:Height: 368 pixels,Width: 640 pixels ,900 Kbps, 25.000 fps\n\nSize:998 mb\n\nYear Of Release:2014\n\n\nMedia Info\n\nVideo\n\nID : 2\nFormat : AVC\nFormat/Info : Advanced Video Codec\nFormat profile : &lt;a class=&quot;__cf_email__&quot; href=&quot;/cdn-cgi/l/email-protection&quot; data-cfemail=&quot;c280a3b1a7aeabaca7828ef1ecf2&quot;&gt;[email&amp;#160;protected]&lt;/a&gt;&lt;script cf-hash='f9e31' type=&quot;text/javascript&quot;&gt;\n/* &lt;![CDATA[ */!function(){try{var t=&quot;currentScript&quot;in document?document.currentScript:function(){for(var t=document.getElementsByTagName(&quot;script&quot;),e=t.length;e--;)if(t[e].getAttribute(&quot;cf-hash&quot;))return t[e]}();if(t&amp;&amp;t.previousSibling){var e,r,n,i,c=t.previousSibling,a=c.getAttribute(&quot;data-cfemail&quot;);if(a){for(e=&quot;&quot;,r=parseInt(a.substr(0,2),16),n=2;a.length-n;n+=2)i=parseInt(a.substr(n,2),16)^r,e+=String.fromCharCode(i);e=document.createTextNode(e),c.parentNode.replaceChild(e,c)}}}catch(u){}}();/* ]]&gt; */&lt;/script&gt;\nFormat settings, CABAC : No\nFormat settings, ReFrames : 1 frame\nMuxing mode : Container profile=&lt;a class=&quot;__cf_email__&quot; href=&quot;/cdn-cgi/l/email-protection&quot; data-cfemail=&quot;87c5e6f4e2ebeee9e2c7b3a9b6&quot;&gt;[email&amp;#160;protected]&lt;/a&gt;&lt;script cf-hash='f9e31' type=&quot;text/javascript&quot;&gt;\n/* &lt;![CDATA[ */!function(){try{var t=&quot;currentScript&quot;in document?document.currentScript:function(){for(var t=document.getElementsByTagName(&quot;script&quot;),e=t.length;e--;)if(t[e].getAttribute(&quot;cf-hash&quot;))return t[e]}();if(t&amp;&amp;t.previousSibling){var e,r,n,i,c=t.previousSibling,a=c.getAttribute(&quot;data-cfemail&quot;);if(a){for(e=&quot;&quot;,r=parseInt(a.substr(0,2),16),n=2;a.length-n;n+=2)i=parseInt(a.substr(n,2),16)^r,e+=String.fromCharCode(i);e=document.createTextNode(e),c.parentNode.replaceChild(e,c)}}}catch(u){}}();/* ]]&gt; */&lt;/script&gt;\nCodec ID : avc1\nCodec ID/Info : Advanced Video Coding\nDuration : 2h 15mn\nBit rate : 900 Kbps\nWidth : 640 pixels\nHeight : 368 pixels\nDisplay aspect ratio : 1.739\nFrame rate mode : Constant\nFrame rate : 25.000 fps\nColor space : YUV\nChroma subsampling : 4:2:0\nBit depth : 8 bits\nScan type : Progressive\nBits/(Pixel*Frame) : 0.153\nStream size : 871 MiB (87%)\nWriting library : Ã„\nLanguage : HINDI\n\nAudio\n\nID : 1\nFormat : AAC\nFormat/Info : Advanced Audio Codec\nFormat profile : LC\nCodec ID : 40\nDuration : 2h 15mn\nBit rate mode : Constant\nBit rate : 128 Kbps\nChannel(s) : 2 channels\nChannel positions : Front: L R\nSampling rate : 48.0 KHz\nCompression mode : Lossy\nStream size : 124 MiB (12%)\nLanguage : HINDI\n\n\n\n\nVisit us at - www.lfrg.co.vu (currently under construction, but feel free to visit, and make sure you leave feedback for us) \n\n\nIf you download our uploads, please make sure you seed them till atleast 1:1 ratio. We all work very hard to get this stuff. We'll all greatly appreciate some help.\n\n","torrent":{"xt":"urn:btih:a5d30f42ba70b97f9a03d0359aed592f8406bae5","amp;dn":"Jai+Ho+%282014%29+CAM+%7EAAC%7EMP4+%7BAryaN_L33T%7D%5BLittleFairyRG%5D","amp;tr":["udp%3A%2F%2Ftracker.openbittorrent.com%3A80","udp%3A%2F%2Fopen.demonii.com%3A1337","udp%3A%2F%2Ftracker.coppersurfer.tk%3A6969","udp%3A%2F%2Fexodus.desync.com%3A6969"],"infoHash":"a5d30f42ba70b97f9a03d0359aed592f8406bae5","infoHashBuffer":{"type":"Buffer","data":[165,211,15,66,186,112,185,127,154,3,208,53,154,237,89,47,132,6,186,229]},"announce":[],"urlList":[]}}